<svg xmlns="http://www.w3.org/2000/svg" viewBox="0 0 32 32" width="32" height="32">
  <!-- Background circle -->
  <circle cx="16" cy="16" r="15" fill="#FF6B35" />

  <!-- Crab body -->
  <ellipse cx="16" cy="18" rx="8" ry="6" fill="#FF4500" />

  <!-- Crab head -->
  <ellipse cx="16" cy="12" rx="5" ry="4" fill="#FF4500" />

  <!-- Eyes -->
  <circle cx="13.5" cy="10.5" r="1.5" fill="white" />
  <circle cx="18.5" cy="10.5" r="1.5" fill="white" />
  <circle cx="13.5" cy="10.5" r="0.7" fill="#1a1a1a" />
  <circle cx="18.5" cy="10.5" r="0.7" fill="#1a1a1a" />

  <!-- Left claw -->
  <path d="M8 16 Q4 12 3 15 Q2 18 5 19 Q7 20 8 18 Z" fill="#FF4500" />
  <path d="M8 16 Q5 14 4 12 Q5 10 7 12 Q8 13 8 16 Z" fill="#FF4500" />

  <!-- Right claw -->
  <path d="M24 16 Q28 12 29 15 Q30 18 27 19 Q25 20 24 18 Z" fill="#FF4500" />
  <path d="M24 16 Q27 14 28 12 Q27 10 25 12 Q24 13 24 16 Z" fill="#FF4500" />

  <!-- Left legs -->
  <path d="M9 17 Q6 16 5 18" stroke="#FF4500" stroke-width="1.5" fill="none" stroke-linecap="round"/>
  <path d="M9 19 Q6 19 5 21" stroke="#FF4500" stroke-width="1.5" fill="none" stroke-linecap="round"/>

  <!-- Right legs -->
  <path d="M23 17 Q26 16 27 18" stroke="#FF4500" stroke-width="1.5" fill="none" stroke-linecap="round"/>
  <path d="M23 19 Q26 19 27 21" stroke="#FF4500" stroke-width="1.5" fill="none" stroke-linecap="round"/>

  <!-- Belly lines -->
  <path d="M10 18 Q16 22 22 18" stroke="#CC3300" stroke-width="0.8" fill="none" />
  <path d="M11 21 Q16 24 21 21" stroke="#CC3300" stroke-width="0.8" fill="none" />
</svg>
